<svg width="18" height="21" viewBox="0 0 18 21" fill="none" xmlns="http://www.w3.org/2000/svg">
<path fill-rule="evenodd" clip-rule="evenodd" d="M9 5C6.79086 5 5 6.79086 5 9C5 11.2091 6.79086 13 9 13C11.2091 13 13 11.2091 13 9C13 6.79086 11.2091 5 9 5ZM7 9C7 7.89543 7.89543 7 9 7C10.1046 7 11 7.89543 11 9C11 10.1046 10.1046 11 9 11C7.89543 11 7 10.1046 7 9Z" fill="white"/>
<path fill-rule="evenodd" clip-rule="evenodd" d="M9 0C4.02944 0 0 4.02944 0 9C0 12.3868 1.96368 15.2529 3.91789 17.2071C4.90756 18.1968 5.93174 18.9907 6.78487 19.5427C7.21073 19.8182 7.60629 20.0415 7.94423 20.2002C8.11266 20.2792 8.2794 20.3482 8.43702 20.3993C8.57715 20.4447 8.78092 20.5 9 20.5C9.21908 20.5 9.42285 20.4447 9.56298 20.3993C9.7206 20.3482 9.88734 20.2792 10.0558 20.2002C10.3937 20.0415 10.7893 19.8182 11.2151 19.5427C12.0683 18.9907 13.0924 18.1968 14.0821 17.2071C16.0363 15.2529 18 12.3868 18 9C18 4.02944 13.9706 0 9 0ZM2 9C2 5.13401 5.13401 2 9 2C12.866 2 16 5.13401 16 9C16 11.6132 14.4637 13.9971 12.6679 15.7929C11.7826 16.6782 10.8692 17.3843 10.1286 17.8636C9.7576 18.1036 9.44223 18.2788 9.20595 18.3897C9.12065 18.4297 9.05213 18.4583 9 18.4778C8.94787 18.4583 8.87935 18.4297 8.79405 18.3897C8.55777 18.2788 8.2424 18.1036 7.87138 17.8636C7.13076 17.3843 6.21744 16.6782 5.33211 15.7929C3.53632 13.9971 2 11.6132 2 9ZM8.90672 18.5081L8.91119 18.5071C8.90816 18.5078 8.90672 18.5081 8.90672 18.5081ZM9.09328 18.5081L9.08882 18.5071L9.091 18.5076L9.09328 18.5081Z" fill="white"/>
</svg>
