<svg width="16" height="24" viewBox="0 0 16 24" fill="none" xmlns="http://www.w3.org/2000/svg">
<path fill-rule="evenodd" clip-rule="evenodd" d="M10.8 2.4C8.14903 2.4 6 4.54903 6 7.2V10.2C6 10.8627 5.46274 11.4 4.8 11.4H2.4V13.8H4.8C5.46274 13.8 6 14.3373 6 15V21.6H8.4V15C8.4 14.3373 8.93726 13.8 9.6 13.8H12.2631L12.8631 11.4H9.6C8.93726 11.4 8.4 10.8627 8.4 10.2V7.2C8.4 5.87452 9.47452 4.8 10.8 4.8H13.2V2.4H10.8ZM3.6 7.2C3.6 3.22355 6.82355 0 10.8 0H14.4C15.0627 0 15.6 0.537258 15.6 1.2V6C15.6 6.66274 15.0627 7.2 14.4 7.2H10.8V9H14.4C14.7695 9 15.1184 9.17025 15.3458 9.46151C15.5733 9.75277 15.6538 10.1326 15.5642 10.491L14.3642 15.291C14.2306 15.8252 13.7506 16.2 13.2 16.2H10.8V22.8C10.8 23.4627 10.2627 24 9.6 24H4.8C4.13726 24 3.6 23.4627 3.6 22.8V16.2H1.2C0.537258 16.2 0 15.6627 0 15V10.2C0 9.53726 0.537258 9 1.2 9H3.6V7.2Z" fill="white"/>
</svg>
