<svg width="24" height="24" viewBox="0 0 24 24" fill="none" xmlns="http://www.w3.org/2000/svg">
<path fill-rule="evenodd" clip-rule="evenodd" d="M6 12C6 8.68629 8.68629 6 12 6C15.3137 6 18 8.68629 18 12C18 15.3137 15.3137 18 12 18C8.68629 18 6 15.3137 6 12ZM12 8.4C10.0118 8.4 8.4 10.0118 8.4 12C8.4 13.9882 10.0118 15.6 12 15.6C13.9882 15.6 15.6 13.9882 15.6 12C15.6 10.0118 13.9882 8.4 12 8.4Z" fill="white"/>
<path d="M18 7.2C18.6627 7.2 19.2 6.66274 19.2 6C19.2 5.33726 18.6627 4.8 18 4.8C17.3373 4.8 16.8 5.33726 16.8 6C16.8 6.66274 17.3373 7.2 18 7.2Z" fill="white"/>
<path fill-rule="evenodd" clip-rule="evenodd" d="M8.82863 3.14949e-07H15.1714C16.4719 -1.17013e-05 17.5209 -2.12878e-05 18.3703 0.0693821C19.245 0.140841 20.0132 0.291816 20.7239 0.653961C21.8529 1.2292 22.7708 2.14709 23.346 3.27606C23.7082 3.98681 23.8592 4.75503 23.9306 5.62965C24 6.47907 24 7.52801 24 8.82848V15.1714C24 16.4719 24 17.5209 23.9306 18.3703C23.8592 19.245 23.7082 20.0132 23.346 20.7239C22.7708 21.8529 21.8529 22.7708 20.7239 23.346C20.0132 23.7082 19.245 23.8592 18.3703 23.9306C17.5209 24 16.472 24 15.1715 24H8.8286C7.52813 24 6.47907 24 5.62965 23.9306C4.75503 23.8592 3.98681 23.7082 3.27606 23.346C2.14709 22.7708 1.2292 21.8529 0.653961 20.7239C0.291816 20.0132 0.140841 19.245 0.0693821 18.3703C-2.12878e-05 17.5209 -1.17013e-05 16.4719 3.14949e-07 15.1714V8.82863C-1.17013e-05 7.52809 -2.12878e-05 6.47911 0.0693821 5.62965C0.140841 4.75503 0.291816 3.98681 0.653961 3.27606C1.2292 2.14709 2.14709 1.2292 3.27606 0.653961C3.98681 0.291816 4.75503 0.140841 5.62965 0.0693821C6.47911 -2.12878e-05 7.52809 -1.17013e-05 8.82863 3.14949e-07ZM5.82509 2.46141C5.09889 2.52074 4.68166 2.63135 4.36563 2.79238C3.68825 3.13752 3.13752 3.68825 2.79238 4.36563C2.63135 4.68166 2.52074 5.09889 2.46141 5.82509C2.40093 6.5653 2.4 7.51607 2.4 8.88V15.12C2.4 16.4839 2.40093 17.4347 2.46141 18.1749C2.52074 18.9011 2.63135 19.3183 2.79238 19.6344C3.13752 20.3118 3.68825 20.8625 4.36563 21.2076C4.68166 21.3686 5.09889 21.4793 5.82509 21.5386C6.5653 21.5991 7.51607 21.6 8.88 21.6H15.12C16.4839 21.6 17.4347 21.5991 18.1749 21.5386C18.9011 21.4793 19.3183 21.3686 19.6344 21.2076C20.3118 20.8625 20.8625 20.3118 21.2076 19.6344C21.3686 19.3183 21.4793 18.9011 21.5386 18.1749C21.5991 17.4347 21.6 16.4839 21.6 15.12V8.88C21.6 7.51607 21.5991 6.5653 21.5386 5.82509C21.4793 5.09889 21.3686 4.68166 21.2076 4.36563C20.8625 3.68825 20.3118 3.13752 19.6344 2.79238C19.3183 2.63135 18.9011 2.52074 18.1749 2.46141C17.4347 2.40093 16.4839 2.4 15.12 2.4H8.88C7.51607 2.4 6.5653 2.40093 5.82509 2.46141Z" fill="white"/>
</svg>
